<?xml version="1.0" encoding="utf-8"?>
<!-- Generator: Adobe Illustrator 27.5.0, SVG Export Plug-In . SVG Version: 6.00 Build 0)  -->
<svg version="1.1" id="Ñëîé_1" xmlns="http://www.w3.org/2000/svg" xmlns:xlink="http://www.w3.org/1999/xlink" x="0px" y="0px"
	 viewBox="0 0 2600 2000" style="enable-background:new 0 0 2600 2000;" xml:space="preserve">
<rect id="_x31_1" style="fill:#FFFFFF;" width="2600" height="2000"/>
<g>
	<path id="_x31_0" style="fill:#A2C3F2;" d="M286.115,1821.306c0,0-143.819-646.363-9.737-1025.903
		c224.358-635.081,552.019-236.327,773.582-267.661c183.391-25.936,344.904-312.414,591.559-316.471
		c246.654-4.057,278.032,204.421,309.457,358.255c53.925,263.975,309.601,60.073,458.732,197.116
		c158.905,146.025,32.07,689.551-84.69,1054.664H286.115z"/>
	<g id="_x39_">
		<polygon id="_x31_5" style="fill:#F1F3F2;" points="1642.498,470.435 1600.927,434.639 1547.873,448.592 1569.07,397.994 
			1539.406,351.848 1594.077,356.372 1628.798,313.9 1641.39,367.294 1692.513,387.191 1645.623,415.665 		"/>
		<polygon id="_x31_5_2_" style="fill:#F1F3F2;" points="684.162,952.71 631.087,938.836 589.569,974.693 586.363,919.928 
			539.432,891.523 590.525,871.55 603.038,818.138 637.822,860.559 692.486,855.954 662.89,902.144 		"/>
	</g>
	<g id="_x38_">
		<circle style="fill:#FFB12A;" cx="2121.828" cy="484.367" r="91.915"/>
		<ellipse style="fill:#30313C;" cx="2091.956" cy="464.63" rx="8.385" ry="17.674"/>
		<ellipse style="fill:#30313C;" cx="2151.701" cy="464.63" rx="8.385" ry="17.674"/>
		<path style="fill:#30313C;" d="M2121.828,520.878c-22.386,0-31.239-14.926-31.605-15.561c-0.551-0.957-0.222-2.18,0.735-2.731
			c0.957-0.551,2.18-0.223,2.731,0.735c0.32,0.548,8.151,13.558,28.139,13.558c20.099,0,28.062-13.422,28.14-13.558
			c0.552-0.957,1.775-1.286,2.731-0.735c0.957,0.551,1.286,1.774,0.735,2.731C2153.068,505.952,2144.214,520.878,2121.828,520.878z"
			/>
	</g>
	<g id="_x37_">
		<path style="fill:#FF593A;" d="M2194.598,1629.389h-35.824v-30.173c0-12.739-10.327-23.067-23.067-23.067H2018.21
			c-12.739,0-23.067,10.327-23.067,23.067v215.251h163.629v-53.239h35.824c19.451,0,35.276-15.825,35.276-35.277v-61.285
			C2229.874,1645.214,2214.049,1629.389,2194.598,1629.389z M2209.874,1725.95c0,8.424-6.853,15.277-15.276,15.277h-35.824v-91.839
			h35.824c8.424,0,15.276,6.853,15.276,15.276V1725.95z"/>
		<rect x="1995.144" y="1597.216" style="fill:#9B453A;" width="163.63" height="4"/>
	</g>
	<g id="_x36__1_">
		<circle style="fill:#FFB12A;" cx="934.376" cy="1066.006" r="91.915"/>
		<ellipse style="fill:#30313C;" cx="904.503" cy="1046.268" rx="8.385" ry="17.674"/>
		<ellipse style="fill:#30313C;" cx="964.248" cy="1046.268" rx="8.385" ry="17.674"/>
		<path style="fill:#FFFFFF;" d="M964.244,1078.599c0,0,0,5.56-1.89,12.26h-55.96c-1.89-6.7-1.89-12.26-1.89-12.26H964.244z"/>
		<path style="fill:#30313C;" d="M934.374,1115.669c-14.873,0-25.493-8.618-29.905-24.268c-1.942-6.887-1.965-12.564-1.965-12.802
			c0-1.104,0.896-2,2-2h59.74c1.104,0,2,0.896,2,2c0,0.238-0.022,5.916-1.965,12.803
			C959.868,1107.051,949.248,1115.669,934.374,1115.669z M906.604,1080.599c0.162,2.125,0.589,5.724,1.715,9.717
			c2.746,9.741,9.496,21.353,26.055,21.353c16.56,0,23.31-11.612,26.055-21.353c1.126-3.993,1.554-7.592,1.716-9.717H906.604z"/>
	</g>
	<path id="_x35_" style="fill:#3E8EDD;" d="M623.02,422.397h-37.978c-1.376-7.173-3.252-14.168-5.596-20.946l32.875-18.981
		c7.845-4.529,10.533-14.561,6.004-22.406l-12.44-21.547c-4.529-7.845-14.561-10.533-22.406-6.004l-32.903,18.997
		c-4.739-5.462-9.86-10.583-15.322-15.322l18.997-32.903c4.529-7.845,1.841-17.877-6.004-22.406l-21.547-12.44
		c-7.845-4.529-17.877-1.841-22.406,6.004l-18.981,32.875c-6.777-2.344-13.772-4.22-20.946-5.596v-37.978
		c0-9.059-7.344-16.402-16.402-16.402h-24.881c-9.059,0-16.403,7.344-16.403,16.402v37.978c-7.173,1.376-14.168,3.252-20.946,5.596
		l-18.98-32.875c-4.529-7.845-14.561-10.533-22.406-6.004l-21.547,12.44c-7.845,4.529-10.533,14.561-6.004,22.406l18.997,32.903
		c-5.462,4.739-10.583,9.86-15.322,15.322l-32.903-18.997c-7.845-4.529-17.877-1.841-22.406,6.004l-12.44,21.547
		c-4.53,7.845-1.842,17.877,6.004,22.406l32.875,18.981c-2.344,6.778-4.22,13.772-5.596,20.946h-37.978
		c-9.059,0-16.402,7.344-16.402,16.403v24.881c0,9.059,7.344,16.402,16.402,16.402h37.978c1.376,7.173,3.252,14.168,5.596,20.946
		l-32.875,18.981c-7.845,4.529-10.533,14.561-6.004,22.406l12.44,21.547c4.529,7.845,14.561,10.533,22.406,6.004l32.903-18.997
		c4.739,5.462,9.86,10.583,15.322,15.322l-18.997,32.903c-4.529,7.845-1.841,17.877,6.004,22.406l21.547,12.44
		c7.845,4.529,17.877,1.841,22.406-6.004l18.981-32.876c6.777,2.344,13.772,4.22,20.946,5.596v37.978
		c0,9.059,7.344,16.402,16.403,16.402h24.881c9.059,0,16.402-7.344,16.402-16.402v-37.978c7.173-1.376,14.168-3.252,20.946-5.596
		l18.981,32.876c4.529,7.845,14.561,10.533,22.406,6.004l21.547-12.44c7.845-4.529,10.533-14.561,6.004-22.406l-18.997-32.903
		c5.462-4.739,10.583-9.86,15.322-15.322l32.903,18.997c7.845,4.529,17.877,1.842,22.406-6.004l12.44-21.547
		c4.529-7.845,1.841-17.877-6.004-22.406l-32.875-18.981c2.344-6.777,4.22-13.772,5.596-20.946h37.978
		c9.059,0,16.402-7.344,16.402-16.402V438.8C639.422,429.741,632.078,422.397,623.02,422.397z M435.524,550.575
		c-54.861,0-99.335-44.474-99.335-99.335s44.474-99.335,99.335-99.335s99.335,44.474,99.335,99.335S490.385,550.575,435.524,550.575
		z"/>
	<path id="_x34_" style="fill:#3E8EDD;" d="M2228.112,1094.202h-15.818c-8.507,0-15.428-6.921-15.428-15.428v-20.101
		c-2.02-0.474-4.025-1.009-6.007-1.604l-10.048,17.403c-2.06,3.568-5.387,6.121-9.367,7.188c-3.98,1.065-8.138,0.52-11.708-1.542
		l-13.699-7.909c-3.568-2.06-6.121-5.387-7.188-9.367c-1.066-3.981-0.519-8.139,1.542-11.708l10.058-17.42
		c-1.507-1.418-2.972-2.884-4.391-4.39l-17.42,10.058c-7.369,4.253-16.822,1.72-21.075-5.647l-7.909-13.699
		c-4.253-7.368-1.72-16.822,5.647-21.075l17.402-10.047c-0.595-1.983-1.131-3.988-1.604-6.006h-20.1
		c-8.508,0-15.429-6.921-15.429-15.428v-15.818c0-8.507,6.921-15.428,15.429-15.428h20.1c0.474-2.018,1.01-4.024,1.604-6.007
		l-17.402-10.047c-7.367-4.253-9.9-13.707-5.647-21.075l7.909-13.7c2.061-3.569,5.388-6.122,9.368-7.189
		c3.978-1.067,8.137-0.519,11.707,1.542l17.42,10.058c1.418-1.506,2.884-2.972,4.391-4.39l-10.058-17.42
		c-2.061-3.569-2.608-7.727-1.542-11.707c1.067-3.981,3.62-7.308,7.188-9.368l13.699-7.909c3.568-2.061,7.729-2.608,11.708-1.542
		c3.98,1.067,7.308,3.62,9.367,7.189l10.048,17.402c1.981-0.595,3.987-1.131,6.007-1.605v-20.1c0-8.507,6.921-15.428,15.428-15.428
		h15.818c8.508,0,15.429,6.921,15.429,15.428v20.1c2.02,0.474,4.024,1.01,6.007,1.604l10.047-17.402
		c2.061-3.569,5.388-6.122,9.368-7.188c3.978-1.066,8.138-0.52,11.707,1.542l13.699,7.909c7.367,4.252,9.9,13.706,5.647,21.075
		l-10.058,17.421c1.506,1.418,2.971,2.883,4.39,4.39l17.42-10.058c7.364-4.252,16.82-1.721,21.075,5.647l7.909,13.699
		c4.254,7.367,1.721,16.821-5.646,21.075l-17.403,10.047c0.596,1.982,1.131,3.988,1.604,6.007h20.1
		c8.508,0,15.429,6.921,15.429,15.428v15.818c0,8.507-6.921,15.428-15.429,15.428h-20.1c-0.474,2.019-1.009,4.024-1.604,6.006
		l17.403,10.047c7.367,4.254,9.9,13.709,5.646,21.075l-7.909,13.699c-4.252,7.366-13.707,9.902-21.074,5.647l-17.421-10.058
		c-1.419,1.506-2.884,2.971-4.39,4.39l10.058,17.42c4.253,7.369,1.72,16.823-5.648,21.075l-13.698,7.909
		c-7.365,4.256-16.82,1.722-21.075-5.646l-10.048-17.402c-1.981,0.595-3.986,1.13-6.006,1.604v20.101
		C2243.541,1087.281,2236.62,1094.202,2228.112,1094.202z M2188.55,1046.07c0.544,0,1.095,0.09,1.633,0.275
		c4.097,1.417,8.345,2.552,12.626,3.373c2.354,0.451,4.058,2.512,4.058,4.91v24.146c0,2.993,2.435,5.428,5.428,5.428h15.818
		c2.993,0,5.429-2.435,5.429-5.428v-24.146c0-2.398,1.703-4.459,4.058-4.91c4.282-0.822,8.529-1.956,12.624-3.373
		c2.266-0.78,4.767,0.151,5.965,2.226l12.067,20.901c1.496,2.592,4.823,3.483,7.415,1.986l13.699-7.909
		c1.256-0.725,2.154-1.896,2.529-3.296s0.183-2.863-0.542-4.12l-12.078-20.918c-1.198-2.074-0.756-4.707,1.054-6.276
		c3.283-2.849,6.393-5.958,9.241-9.241c1.57-1.81,4.204-2.251,6.276-1.054l20.919,12.078c2.592,1.495,5.919,0.604,7.415-1.987
		l7.909-13.699c1.497-2.592,0.605-5.918-1.986-7.415l-20.901-12.067c-2.075-1.198-3.009-3.7-2.226-5.964
		c1.417-4.096,2.552-8.343,3.373-12.624c0.451-2.355,2.512-4.058,4.91-4.058h24.145c2.993,0,5.429-2.435,5.429-5.428v-15.818
		c0-2.993-2.436-5.428-5.429-5.428h-24.145c-2.398,0-4.459-1.703-4.91-4.058c-0.821-4.281-1.956-8.528-3.373-12.625
		c-0.783-2.265,0.15-4.766,2.226-5.964l20.901-12.067c2.592-1.497,3.482-4.823,1.986-7.415l-7.909-13.699
		c-1.497-2.593-4.826-3.483-7.415-1.987l-20.919,12.078c-2.073,1.197-4.707,0.756-6.276-1.054c-2.849-3.283-5.958-6.392-9.241-9.241
		c-1.81-1.57-2.252-4.203-1.054-6.277l12.078-20.919c1.496-2.592,0.604-5.919-1.987-7.415l-13.699-7.91
		c-1.255-0.725-2.719-0.917-4.119-0.542c-1.4,0.375-2.571,1.273-3.296,2.529l-12.067,20.901c-1.198,2.075-3.699,3.009-5.965,2.225
		c-4.094-1.416-8.341-2.551-12.624-3.373c-2.354-0.452-4.058-2.513-4.058-4.911v-24.145c0-2.993-2.436-5.428-5.429-5.428h-15.818
		c-2.993,0-5.428,2.435-5.428,5.428v24.145c0,2.398-1.703,4.458-4.058,4.911c-4.282,0.821-8.53,1.956-12.625,3.373
		c-2.267,0.783-4.768-0.15-5.965-2.225l-12.067-20.901c-0.725-1.256-1.896-2.154-3.296-2.529c-1.401-0.376-2.864-0.182-4.119,0.542
		l-13.699,7.909c-1.256,0.725-2.153,1.896-2.528,3.296c-0.376,1.4-0.183,2.863,0.542,4.119l12.077,20.919
		c1.197,2.075,0.756,4.707-1.054,6.277c-3.285,2.85-6.394,5.959-9.24,9.241c-1.571,1.81-4.203,2.251-6.277,1.054l-20.919-12.078
		c-1.255-0.725-2.718-0.917-4.119-0.542c-1.4,0.375-2.571,1.273-3.296,2.529l-7.909,13.699c-1.496,2.592-0.604,5.918,1.987,7.415
		l20.901,12.067c2.075,1.198,3.009,3.7,2.226,5.964c-1.419,4.101-2.554,8.348-3.373,12.623c-0.451,2.356-2.512,4.059-4.91,4.059
		h-24.146c-2.993,0-5.429,2.435-5.429,5.428v15.818c0,2.993,2.436,5.428,5.429,5.428h24.146c2.398,0,4.459,1.703,4.91,4.059
		c0.819,4.274,1.954,8.521,3.373,12.623c0.783,2.265-0.15,4.766-2.226,5.964l-20.901,12.067c-2.592,1.496-3.483,4.823-1.987,7.415
		l7.909,13.699c1.496,2.593,4.824,3.482,7.415,1.987l20.919-12.078c2.073-1.196,4.706-0.759,6.276,1.054
		c2.849,3.283,5.958,6.393,9.241,9.241c1.81,1.569,2.251,4.202,1.054,6.276l-12.077,20.919c-0.725,1.256-0.918,2.719-0.542,4.119
		c0.375,1.4,1.272,2.571,2.528,3.296l13.699,7.909c1.256,0.724,2.721,0.919,4.119,0.542c1.4-0.375,2.571-1.272,3.296-2.528
		l12.067-20.901C2185.132,1046.989,2186.804,1046.07,2188.55,1046.07z M2220.203,1027.724c-37.58,0-68.153-30.574-68.153-68.154
		c0-37.581,30.573-68.154,68.153-68.154s68.154,30.574,68.154,68.154C2288.357,997.15,2257.783,1027.724,2220.203,1027.724z
		 M2220.203,901.416c-32.065,0-58.153,26.088-58.153,58.154c0,32.066,26.088,58.154,58.153,58.154
		c32.066,0,58.154-26.088,58.154-58.154C2278.357,927.503,2252.27,901.416,2220.203,901.416z"/>
	<g id="_x33_">
		<path style="fill:#9B453A;" d="M1297.977,795.403c-0.376,0-0.752-0.105-1.082-0.317l-104.087-66.918
			c-26.067,5.533-53.146,8.339-80.497,8.339c-75.7,0-146.893-21.167-200.466-59.601c-53.772-38.579-83.387-89.937-83.387-144.611
			c0-54.675,29.614-106.032,83.387-144.611c53.572-38.435,124.766-59.602,200.466-59.602c75.7,0,146.893,21.167,200.465,59.602
			c53.773,38.579,83.387,89.936,83.387,144.611c0,32.837-11.081,65.471-32.046,94.371c-19.973,27.533-48.925,51.801-83.792,70.248
			l19.611,96.09c0.161,0.788-0.166,1.597-0.83,2.051C1298.767,795.286,1298.372,795.403,1297.977,795.403z M1193.197,724.04
			c0.38,0,0.757,0.108,1.082,0.317l100.791,64.799l-18.963-92.914c-0.178-0.874,0.243-1.76,1.033-2.173
			c72.024-37.638,115.024-98.114,115.024-161.775c0-110.398-125.541-200.213-279.852-200.213s-279.852,89.815-279.852,200.213
			c0,110.397,125.541,200.213,279.852,200.213c27.352,0,54.425-2.834,80.466-8.422
			C1192.916,724.054,1193.057,724.04,1193.197,724.04z"/>
		<path style="fill:#FF593A;" d="M1374.163,522.294c0-111.679-126.19-202.213-281.852-202.213s-281.852,90.534-281.852,202.213
			c0,111.679,126.19,202.213,281.852,202.213c28.116,0,55.262-2.968,80.885-8.466l104.781,67.363l-19.912-97.561
			C1328.423,649.075,1374.163,589.521,1374.163,522.294z"/>
		<path style="fill:#FFFFFF;" d="M1274.565,486.083H910.058c-3.313,0-6-2.686-6-6s2.687-6,6-6h364.508c3.313,0,6,2.686,6,6
			S1277.879,486.083,1274.565,486.083z"/>
		<path style="fill:#FFFFFF;" d="M1274.565,527.742H910.058c-3.313,0-6-2.686-6-6c0-3.313,2.687-6,6-6h364.508c3.313,0,6,2.687,6,6
			C1280.565,525.055,1277.879,527.742,1274.565,527.742z"/>
		<path style="fill:#FFFFFF;" d="M1274.565,569.401H910.058c-3.313,0-6-2.687-6-6c0-3.314,2.687-6,6-6h364.508c3.313,0,6,2.686,6,6
			C1280.565,566.715,1277.879,569.401,1274.565,569.401z"/>
	</g>
	<g id="_x32_">
		<path style="fill:#2A3047;" d="M1553.089,791.601c0,0,90.994-51.104,162.184,18.3c71.19,69.404,41.932,157.535,55.909,212.302
			c13.976,54.767,112.261,62.711,132.353,139.06c18.438,70.067-35.545,96.69-93.447,83.878c0,0,59.745,116.855-54.735,142.174
			c-90.478,20.011-286.457,4.455-365.011-168.514C1326.543,1078.326,1319.071,847.639,1553.089,791.601z"/>
		<path style="fill:#D88E4C;" d="M966.994,1636.364c0,0-26.369,79.105,1.186,139.243
			C968.18,1775.607,1034.915,1695.047,966.994,1636.364z"/>
		<path style="fill:#F69D85;" d="M1336.972,1368.072l-85.378,227.196l-386.187,71.096c-26.902,4.953-44.696,30.776-39.743,57.678
			c4.528,24.593,26.507,41.568,50.797,40.518l392.328-16.543c25.344-1.069,46.854-15.907,57.62-36.996l173.138-341.247
			c19.207-37.853,4.091-84.109-33.762-103.316C1427.933,1247.251,1356.179,1330.219,1336.972,1368.072z"/>
		<path style="fill:#F1F3F2;" d="M1493.5,1211.708c0,0-116.756,21.292-223.4,223.925c-46.42,88.202-72.083,144.085-72.083,144.085
			s-160.256,41.46-231.023,56.647c0,0,34.786,56.973,1.186,139.243c0,0,294.651,25.442,353.61-27.212
			c59.807-53.411,201.662-335.356,201.662-335.356L1493.5,1211.708z"/>
		<path style="fill:#D88E4C;" d="M1017.458,1731.139c-3.732,27.187-11.131,47.48-11.21,47.694c-0.382,1.036-1.531,1.567-2.568,1.185
			c-1.036-0.382-1.564-1.534-1.185-2.568c0.33-0.895,32.529-90.234-5.657-147.058c-0.617-0.917-0.372-2.159,0.544-2.776
			c0.917-0.616,2.16-0.372,2.776,0.544c20.599,30.652,21.142,70.027,17.971,97.661
			C1017.922,1727.62,1017.697,1729.395,1017.458,1731.139z"/>
		<path style="fill:#D88E4C;" d="M1059.02,1731.485c-4.014,29.241-12.459,49.265-12.546,49.468
			c-0.434,1.016-1.608,1.488-2.624,1.055c-1.017-0.434-1.49-1.61-1.055-2.624c0.087-0.204,8.739-20.732,12.536-50.512
			c3.507-27.418,3.524-68.547-16.307-108.786c-0.488-0.992-0.081-2.191,0.91-2.679c0.991-0.488,2.19-0.081,2.678,0.91
			c20.294,41.178,20.266,83.194,16.67,111.191C1059.197,1730.17,1059.109,1730.832,1059.02,1731.485z"/>
		<path style="fill:#818496;" d="M1199.999,1579.99c-0.032,0.234-0.107,0.466-0.227,0.686c-7.286,13.336-8.991,38.456-9.008,38.708
			c-0.088,1.11-1.023,1.938-2.126,1.866c-1.102-0.072-1.937-1.023-1.866-2.125c0.07-1.067,1.785-26.262,9.49-40.367
			c0.529-0.969,1.744-1.326,2.714-0.796C1199.725,1578.372,1200.109,1579.191,1199.999,1579.99z"/>
		<path style="fill:#AF5945;" d="M1426.853,1028.767c0.839-0.239,1.46-1.005,1.476-1.923c0.224-13.327-8.664-15.987-14.544-17.747
			c-2.633-0.788-5.12-1.533-5.825-2.855c-0.392-0.734-0.352-1.875,0.117-3.395c3.703-11.988,18.679-12.53,18.829-12.533
			c1.128-0.04,2.012-0.966,1.981-2.09c-0.03-1.125-0.966-2.011-2.09-1.981c-0.736,0.018-18.054,0.654-22.611,15.403
			c-0.812,2.631-0.753,4.762,0.18,6.513c1.505,2.82,4.782,3.8,8.251,4.839c5.807,1.738,11.811,3.535,11.639,13.777
			c-0.018,1.124,0.878,2.051,2.002,2.071C1426.465,1028.849,1426.665,1028.821,1426.853,1028.767z"/>
		
			<ellipse transform="matrix(0.5947 -0.804 0.804 0.5947 -231.3497 1557.4323)" style="fill:#F69D85;" cx="1428.886" cy="1008.154" rx="34.765" ry="34.765"/>
		<rect x="1493.505" y="1057.52" style="fill:#F69D85;" width="124.464" height="195.107"/>
		
			<ellipse transform="matrix(0.1089 -0.994 0.994 0.1089 277.5253 2328.6152)" style="fill:#3E8EDD;" cx="1437.642" cy="1009.507" rx="71.875" ry="62.397"/>
		<path style="fill:#D1836B;" d="M1580.88,1172.893c0,0-43.018,17.304-87.375,8.893v-63.506L1580.88,1172.893z"/>
		<path style="fill:#F69D85;" d="M1542.349,1174.153L1542.349,1174.153c-71.849-7.874-123.71-72.503-115.836-144.352l7.401-67.53
			c7.874-71.849,72.503-123.71,144.351-115.836l0,0c71.849,7.875,123.71,72.503,115.836,144.352l-7.401,67.53
			C1678.827,1130.166,1614.198,1182.028,1542.349,1174.153z"/>
		<path style="fill:#333647;" d="M1103.311,1814.47h-629.53l-87.12-370.64c-7.55-32.12,16.82-62.89,49.82-62.89h524.38
			c23.76,0,44.39,16.34,49.82,39.47L1103.311,1814.47z"/>
		<path style="fill:#404660;" d="M1063.311,1814.47h-589.53l-87.12-370.64c-7.55-32.12,16.82-62.89,49.82-62.89h484.38
			c23.76,0,44.39,16.34,49.82,39.47L1063.311,1814.47z"/>
		<rect x="1074.778" y="1773.705" style="fill:#333647;" width="351.817" height="40.762"/>
		<path style="fill:#F69D85;" d="M1566.391,1794.085c-114.959,0-206.028-19.334-206.028-19.334
			c22.976-81.045,12.862-178.854,6.83-325.732c-1.525-37.13,126.307-237.311,126.307-237.311l66.004-11.222
			c114.959,0,194.14,118.129,182.302,232.477c-15.258,147.38-78.95,180.523-6.203,328.223L1566.391,1794.085z"/>
		<path style="fill:#30313C;" d="M1581.054,1000.966c-1.059,9.704,2.093,18.008,7.04,18.548c4.947,0.54,9.816-6.889,10.875-16.592
			c1.059-9.704-2.093-18.008-7.04-18.548C1586.982,983.833,1582.113,991.262,1581.054,1000.966z"/>
		<path style="fill:#30313C;" d="M1502.505,992.394c-1.059,9.704,2.093,18.008,7.04,18.548c4.947,0.54,9.816-6.889,10.875-16.593
			c1.059-9.704-2.093-18.008-7.04-18.548C1508.433,975.261,1503.564,982.69,1502.505,992.394z"/>
		<path style="fill:#D1836B;" d="M1633.382,1041.786c0.35,6.977-5.564,12.945-13.211,13.328
			c-7.646,0.384-14.129-4.961-14.479-11.938c-0.35-6.977,5.564-12.945,13.211-13.329
			C1626.549,1029.464,1633.032,1034.808,1633.382,1041.786z"/>
		<path style="fill:#D1836B;" d="M1486.432,1031.465c0.35,6.977-5.564,12.945-13.211,13.328
			c-7.646,0.384-14.129-4.961-14.479-11.939c-0.35-6.977,5.564-12.945,13.211-13.328
			C1479.599,1019.143,1486.082,1024.488,1486.432,1031.465z"/>
		<path style="fill:#F1F3F2;" d="M1493.5,1211.708c0,0-131.641,125.429-168.447,251.73
			c-16.948,58.159,29.377,119.914,39.504,181.455c9.384,57.026-23.681,169.574-23.681,169.574s133.357,11.384,190.463,11.385
			c136.479,0.001,226.274-7.856,226.274-7.856s-87.141-203.344-2.23-330.13c67.512-100.805-25.016-241.088-137.334-276.156
			c0,0-52.396,54.494-94.913,48.95C1487.459,1256.005,1493.5,1211.708,1493.5,1211.708z"/>
		
			<ellipse transform="matrix(0.8461 -0.5331 0.5331 0.8461 -288.3235 1062.7468)" style="fill:#F69D85;" cx="1695.999" cy="1030.609" rx="34.765" ry="34.765"/>
		<path style="fill:#DB7777;" d="M1570.169,1075.263c0.794,5.621-8.09,11.523-19.844,13.183c-11.753,1.66-21.924-1.551-22.718-7.172
			c-0.794-5.621,8.09-11.523,19.843-13.183C1559.204,1066.431,1569.375,1069.642,1570.169,1075.263z"/>
		<path style="fill:#AF5945;" d="M1560.206,1079.21c6.691-1.911,13.751-4.91,20.885-9.451c0.95-0.603,1.229-1.862,0.625-2.81
			c-0.604-0.949-1.868-1.229-2.81-0.625c-30.631,19.495-60.704,8.688-61.004,8.577c-1.052-0.394-2.226,0.143-2.617,1.197
			c-0.393,1.053,0.141,2.224,1.194,2.618C1517.493,1079.095,1536.516,1085.977,1560.206,1079.21z"/>
		<path style="fill:#AF5945;" d="M1693.864,1049.45c0.822-0.234,1.439-0.974,1.475-1.876c0.416-10.234,6.514-11.684,12.412-13.086
			c3.52-0.838,6.851-1.629,8.514-4.357c1.033-1.695,1.216-3.817,0.555-6.492c-3.701-14.985-20.956-16.614-21.688-16.676
			c-1.12-0.095-2.103,0.734-2.198,1.854c-0.097,1.118,0.733,2.105,1.851,2.203c0.615,0.054,15.086,1.465,18.081,13.594
			c0.382,1.544,0.355,2.686-0.078,3.395c-0.78,1.281-3.308,1.881-5.979,2.516c-5.979,1.42-14.998,3.564-15.54,16.883
			c-0.046,1.123,0.828,2.071,1.952,2.117C1693.445,1049.536,1693.661,1049.508,1693.864,1049.45z"/>
		<path style="fill:#AF5945;" d="M1613.484,985.072c0.553-0.158,1.073-0.457,1.503-0.898c1.319-1.351,1.293-3.514-0.057-4.832
			c-0.665-0.649-16.529-15.859-38.639-13.092c-1.871,0.229-3.2,1.942-2.966,3.815c0.235,1.872,1.943,3.201,3.815,2.966
			c18.88-2.363,32.878,11.064,33.017,11.2C1611.065,985.119,1612.343,985.398,1613.484,985.072z"/>
		<path style="fill:#AF5945;" d="M1533.828,968.802c0.922-0.263,1.728-0.91,2.162-1.846c0.791-1.707,0.059-3.729-1.645-4.528
			c-0.705-0.331-17.505-7.974-36.04,3.191c-1.616,0.974-2.137,3.073-1.164,4.691c0.974,1.616,3.069,2.139,4.691,1.164
			c15.313-9.227,29.049-3.116,29.627-2.851C1532.232,968.977,1533.07,969.019,1533.828,968.802z"/>
		<path style="fill:#AF5945;" d="M1549.443,1050.934c0.655-0.187,1.2-0.698,1.401-1.401c0.308-1.082-0.319-2.208-1.401-2.516
			c-4.748-1.354-14.365-5.466-13.788-9.53c0.805-5.664,10.681-30.792,14.418-39.996c0.424-1.042-0.078-2.23-1.12-2.652
			c-1.041-0.424-2.23,0.078-2.653,1.12c-0.557,1.371-13.637,33.64-14.677,40.956c-1.229,8.661,14.867,13.496,16.706,14.019
			C1548.707,1051.042,1549.091,1051.035,1549.443,1050.934z"/>
		
			<ellipse transform="matrix(0.7071 -0.7071 0.7071 0.7071 -60.9404 1366.9108)" style="fill:#2A3047;" cx="1619.537" cy="757.017" rx="88.198" ry="88.198"/>
		<path style="fill:#818496;" d="M1405.739,1676.239c0,0,58.963,85.126,14.038,141.539
			C1419.777,1817.778,1374.158,1763.563,1405.739,1676.239z"/>
		<path style="fill:#F69D85;" d="M1359.755,1800.086c0,0-43.25,15.476-90.603-0.135c-44.352-14.621-55.331-31.131-63.826-49.614
			c-8.494-18.483,71.199-45.79,101.745-40.336C1337.617,1715.456,1360.102,1753.894,1359.755,1800.086z"/>
		<path style="fill:#F69D85;" d="M1272.246,1800.934c-23.389-6.708-47.372-8.438-71.153-2.97
			c-10.706,2.462-32.167,15.549-38.901-1.143c-7.483-23.332,91.97-43.063,109.994-43.335
			C1320.602,1745.499,1311.536,1815.95,1272.246,1800.934z"/>
		<path style="fill:#F69D85;" d="M1256.915,1779.785c-22.359-7.631-47.021-8.569-70.574-6.002
			c-12.478-0.731-33.585,13.305-38.971-4.159c-3.768-18.467,47.24-25.767,60.862-29.585c19.603-3.279,40.022-4.64,59.857-1.387
			C1294.93,1746.074,1283.86,1786.974,1256.915,1779.785z"/>
		<path style="fill:#F69D85;" d="M1259.406,1759.631c-33.677-13.942-72.572-16.552-107.704-6.123
			c-12.914,3.816-19.967-15.824-7.686-21.125c14.572-7.082,30.468-12.284,46.484-15.217c27.844-4.667,56.881-4.497,84.343,2.63
			C1304.253,1728.66,1287.151,1772.912,1259.406,1759.631z"/>
		<path style="fill:#F69D85;" d="M1306.045,1737.524c-35.335-14.787-74.487-23.397-112.825-20.521
			c-12.688,1.043-25.159,3.719-37.072,8.151c-5.914,2.404-12.708-0.576-14.881-6.593c-6.81-25.576,74.435-33.698,92.061-33.34
			c30.349,0.005,65.326,6.295,94.344,15.227C1356.421,1710.513,1333.167,1751.528,1306.045,1737.524z"/>
		<path style="fill:#AF5945;" d="M1188.977,1774.588c-0.447-0.11-0.834-0.426-1.018-0.886c-0.301-0.755,0.067-1.611,0.821-1.912
			c0.219-0.087,22.084-8.679,52.126-9.225c0.813-0.01,1.484,0.632,1.5,1.446c0.015,0.814-0.633,1.484-1.445,1.5
			c-29.475,0.535-50.876,8.931-51.089,9.016C1189.576,1774.643,1189.264,1774.658,1188.977,1774.588z"/>
		<path style="fill:#AF5945;" d="M1175.884,1749.741c-0.478-0.118-0.886-0.472-1.05-0.975c-0.25-0.773,0.171-1.604,0.945-1.856
			c0.245-0.08,24.849-7.992,57.891-10.037c0.816-0.045,1.51,0.568,1.561,1.379c0.05,0.812-0.567,1.51-1.379,1.561
			c-32.647,2.019-56.92,9.818-57.161,9.897C1176.42,1749.8,1176.142,1749.805,1175.884,1749.741z"/>
		<path style="fill:#AF5945;" d="M1176.457,1721.446c-0.534-0.131-0.973-0.557-1.092-1.131c-0.165-0.796,0.346-1.575,1.142-1.741
			c0.281-0.058,28.409-5.859,53.063-6.657c0.815-0.027,1.492,0.613,1.518,1.423c0.027,0.813-0.611,1.494-1.424,1.52
			c-24.401,0.79-52.279,6.54-52.558,6.598C1176.885,1721.505,1176.663,1721.497,1176.457,1721.446z"/>
		<path style="fill:#F69D85;" d="M1860.192,1708.749l-0.739-3.173l-94.735-406.897c-0.42-1.778-0.946-3.733-1.501-5.504
			c-12.58-40.15-55.327-62.5-95.477-49.92c-40.15,12.58-62.5,55.327-49.92,95.477l103.047,328.875l-392.826,33.387
			c-28.355,2.443-49.952,26.977-48.435,55.61c1.548,29.229,26.498,51.668,55.726,50.12l469.923-24.891
			c3.327-0.199,7.015-0.689,10.37-1.47C1847.708,1772.895,1867.661,1740.832,1860.192,1708.749z"/>
		<path style="fill:#F1F3F2;" d="M1618.05,1211.708c0,0,135.171-8.521,183.045,99.236
			c47.874,107.757,129.571,389.232,60.362,457.654c-56.132,55.494-441.679,49.181-441.679,49.181s17.307-58.281-14.038-141.539
			c0,0,168.476-33.723,253.816-44.961C1659.555,1631.277,1562.388,1320.854,1618.05,1211.708z"/>
		<path style="fill:#818496;" d="M1405.737,1678.238c-0.933,0-1.768-0.655-1.959-1.605c-0.218-1.083,0.483-2.137,1.566-2.355
			c1.687-0.339,168.03-33.757,251.597-44.679c-5.459-17.812-40.95-136.687-54.748-259.302c-0.124-1.098,0.666-2.088,1.764-2.211
			c1.09-0.129,2.087,0.666,2.211,1.764c14.847,131.933,54.891,259.551,55.294,260.824c0.179,0.565,0.098,1.181-0.222,1.681
			c-0.319,0.499-0.844,0.831-1.432,0.906c-82.61,10.572-251.974,44.596-253.675,44.938
			C1406.001,1678.226,1405.868,1678.238,1405.737,1678.238z"/>
		<path style="fill:#818496;" d="M1463.365,1819.995c-0.125,0-0.253-0.012-0.381-0.036c-1.084-0.21-1.794-1.259-1.585-2.343
			c0.144-0.743,13.993-75.175-14.967-148.98c-0.404-1.028,0.103-2.188,1.131-2.592c1.031-0.408,2.189,0.104,2.592,1.131
			c29.397,74.92,15.317,150.445,15.172,151.199C1465.143,1819.331,1464.305,1819.995,1463.365,1819.995z"/>
		<path style="fill:#818496;" d="M1508.987,1819.578c-0.097,0-0.193-0.007-0.291-0.021c-1.094-0.16-1.851-1.175-1.691-2.268
			c13.693-93.926-18.938-155.667-19.269-156.279c-0.525-0.972-0.164-2.186,0.808-2.711c0.967-0.525,2.183-0.166,2.71,0.807
			c0.338,0.623,33.605,63.444,19.71,158.76C1510.818,1818.861,1509.964,1819.578,1508.987,1819.578z"/>
		<path style="fill:#3E8EDD;" d="M1653.571,1129.176c-3.026,0-6.087-0.233-9.164-0.716l-53.568-8.392
			c-2.729-0.427-4.594-2.985-4.166-5.713c0.427-2.728,2.987-4.593,5.713-4.166l53.568,8.392c25.623,4.007,49.97-12.702,55.426-38.06
			c0.58-2.699,3.239-4.425,5.939-3.836c2.699,0.58,4.417,3.24,3.836,5.939C1705.241,1110.116,1680.887,1129.176,1653.571,1129.176z"
			/>
		
			<ellipse transform="matrix(0.1089 -0.994 0.994 0.1089 496.9018 2617.2339)" style="fill:#3E8EDD;" cx="1708.319" cy="1031.45" rx="71.875" ry="62.397"/>
		<path style="fill:#3E8EDD;" d="M1717.225,1003.693c-0.587,0-1.18-0.039-1.777-0.117c-7.387-0.972-12.589-7.743-11.626-15.129
			c0.07-0.556,4.473-36.656-6.997-74.474c-14.776-48.718-48.38-77.788-99.878-86.403c-7.354-1.23-12.317-8.189-11.088-15.543
			c1.231-7.353,8.195-12.315,15.543-11.087c78.225,13.085,109.266,64.917,121.53,106.095c12.915,43.357,7.882,83.241,7.661,84.917
			C1729.699,998.747,1723.897,1003.693,1717.225,1003.693z"/>
		<path style="fill:#2A3047;" d="M1633.397,838.532c0,0-33.962-95.794-144.061-75.672
			c-110.099,20.122-119.145,121.622-65.103,152.591c37.643,21.572,140.017,4.199,181.255-18.08c0,0,5.816,76.313,71.457,76.594
			C1733.383,974.207,1728.319,845.646,1633.397,838.532z"/>
		<circle style="fill:#305777;" cx="1591.612" cy="1115.129" r="17.132"/>
		<path style="fill:#305777;" d="M1717.349,1085.422c-1.246,0-2.499-0.067-3.758-0.205c-11.367-1.246-21.42-7.94-28.307-18.852
			c-6.794-10.766-9.693-24.38-8.164-38.335c3.176-28.98,24.706-50.476,47.991-47.929c23.286,2.552,39.647,28.206,36.472,57.186l0,0
			C1758.578,1064.7,1739.149,1085.422,1717.349,1085.422z M1721.339,983.895c-19.783,0-37.462,19.201-40.242,44.571
			c-1.432,13.06,1.257,25.762,7.57,35.765c6.223,9.859,15.229,15.899,25.359,17.01c21.101,2.313,40.644-17.601,43.58-44.389
			c2.936-26.788-11.837-50.462-32.931-52.774C1723.56,983.955,1722.444,983.895,1721.339,983.895z M1759.595,1037.069h0.01H1759.595
			z"/>
		<path style="fill:#818496;" d="M1364.573,1699.89c-0.059,0-0.117-0.002-0.176-0.007c-1.101-0.096-1.914-1.065-1.819-2.165
			c0.009-0.106,0.906-11.122-0.02-52.781c-0.442-19.863-10.199-44.779-20.528-71.158c-11.283-28.815-22.951-58.612-22.669-83.439
			c0.531-46.741,54.203-134.137,56.488-137.834c0.58-0.939,1.813-1.233,2.752-0.65c0.94,0.58,1.231,1.813,0.65,2.752
			c-0.554,0.896-55.372,90.146-55.891,135.777c-0.273,24.049,11.25,53.477,22.394,81.936c10.462,26.719,20.345,51.956,20.803,72.528
			c0.934,42.019,0.043,52.78,0.005,53.218C1366.472,1699.106,1365.599,1699.89,1364.573,1699.89z"/>
		<path style="fill:#818496;" d="M1525.126,1283.109c-4.801,0-9.45-0.384-13.916-1.16c-13.308-2.314-23.507-8.409-30.314-18.113
			c-13.374-19.065-8.96-45.091-8.766-46.189c0.192-1.087,1.224-1.813,2.317-1.62c1.087,0.191,1.813,1.229,1.622,2.316
			c-0.045,0.253-4.309,25.527,8.114,43.215c6.175,8.792,15.498,14.326,27.712,16.45c4.339,0.755,8.791,1.114,13.307,1.115
			c43.378,0.003,93.304-33.136,118.095-67.844c0.643-0.9,1.893-1.106,2.79-0.466c0.899,0.643,1.107,1.892,0.466,2.79
			c-14.407,20.17-36.363,39.168-60.239,52.123C1565.289,1277.135,1544.06,1283.108,1525.126,1283.109z"/>
	</g>
	<path id="_x31__7_" style="fill:#30313C;" d="M2442.66,1829.074H136.227c-4.142,0-7.5-3.357-7.5-7.5s3.358-7.5,7.5-7.5H2442.66
		c4.143,0,7.5,3.357,7.5,7.5S2446.803,1829.074,2442.66,1829.074z"/>
</g>
</svg>
